<svg xmlns="http://www.w3.org/2000/svg" xmlns:xlink="http://www.w3.org/1999/xlink" width="1000" height="1000" viewBox="0 0 1000 1000">
  <defs>
    <clipPath id="clip-icon_tab_games">
      <rect width="1000" height="1000"/>
    </clipPath>
  </defs>
  <g id="icon_tab_games" clip-path="url(#clip-icon_tab_games)">
    <g id="Path_1" data-name="Path 1" transform="translate(-1330 1786)" fill="#e1e1e1">
      <path d="M 2067.000244140625 -1029.000122070313 C 2041.012084960938 -1029.000122070313 2023.5927734375 -1048.180908203125 1995.041748046875 -1082.082397460938 C 1961.006591796875 -1122.495483398438 1914.39404296875 -1177.843139648438 1829.999877929688 -1177.843139648438 C 1745.605712890625 -1177.843139648438 1698.993286132813 -1122.495483398438 1664.958374023438 -1082.082397460938 C 1636.407348632813 -1048.180908203125 1618.988037109375 -1029.000122070313 1593.000122070313 -1029.000122070313 C 1475.551513671875 -1029.000122070313 1380.000244140625 -1124.551513671875 1380.000244140625 -1242 C 1380.000244140625 -1359.448486328125 1475.551513671875 -1454.999877929688 1593.000122070313 -1454.999877929688 L 2067.000244140625 -1454.999877929688 C 2184.44873046875 -1454.999877929688 2280.000244140625 -1359.448486328125 2280.000244140625 -1242 C 2280.000244140625 -1124.551513671875 2184.44873046875 -1029.000122070313 2067.000244140625 -1029.000122070313 Z" stroke="none"/>
      <path d="M 1592.369384765625 -1078.722900390625 C 1599.400756835938 -1081.85888671875 1615.837524414063 -1101.375854492188 1626.714111328125 -1114.290893554688 C 1662.481567382813 -1156.761108398438 1722.34521484375 -1227.843139648438 1829.999755859375 -1227.843139648438 C 1937.654541015625 -1227.843139648438 1997.518188476563 -1156.761108398438 2033.28564453125 -1114.290893554688 C 2044.162475585938 -1101.376098632813 2060.599365234375 -1081.85888671875 2066.544921875 -1079.015258789063 L 2067.000244140625 -1079.000244140625 C 2156.878662109375 -1079.000244140625 2230.000244140625 -1152.12158203125 2230.000244140625 -1242 C 2230.000244140625 -1331.87841796875 2156.878662109375 -1404.999755859375 2067.000244140625 -1404.999755859375 L 1593 -1404.999755859375 C 1503.12158203125 -1404.999755859375 1430.000244140625 -1331.87841796875 1430.000244140625 -1242 C 1430.000244140625 -1152.12158203125 1503.12158203125 -1079.000244140625 1592.369384765625 -1078.722900390625 M 2067.000244140625 -979.000244140625 C 1962.654296875 -979.000244140625 1948.5 -1127.843139648438 1829.999755859375 -1127.843139648438 C 1711.499755859375 -1127.843139648438 1697.345947265625 -979.000244140625 1593 -979.000244140625 C 1447.749145507813 -979.000244140625 1330.000244140625 -1096.749145507813 1330.000244140625 -1242 C 1330.000244140625 -1387.250854492188 1447.749145507813 -1504.999755859375 1593 -1504.999755859375 C 1697.345947265625 -1504.999755859375 1962.654296875 -1504.999755859375 2067.000244140625 -1504.999755859375 C 2212.25146484375 -1504.999755859375 2330.000244140625 -1387.250854492188 2330.000244140625 -1242 C 2330.000244140625 -1096.749145507813 2212.25146484375 -979.000244140625 2067.000244140625 -979.000244140625 Z" stroke="none" fill="#141414"/>
    </g>
    <path id="Path_2" data-name="Path 2" d="M1410.167-1308.174a11.058,11.058,0,0,1-11.057-11.059v-58.052h-58.052A11.057,11.057,0,0,1,1330-1388.342v-36.49a11.057,11.057,0,0,1,11.057-11.058h58.052v-58.052A11.058,11.058,0,0,1,1410.167-1505h36.49a11.057,11.057,0,0,1,11.057,11.058v58.052h58.052a11.058,11.058,0,0,1,11.059,11.058v36.49a11.058,11.058,0,0,1-11.059,11.057h-58.052v58.052a11.058,11.058,0,0,1-11.057,11.059Z" transform="translate(-1164.5 1909)" fill="#135bd1"/>
    <circle id="Ellipse_7396" data-name="Ellipse 7396" cx="50" cy="50" r="50" transform="translate(642 397)" fill="#78d113"/>
    <circle id="Ellipse_7397" data-name="Ellipse 7397" cx="50" cy="50" r="50" transform="translate(742 508)" fill="#78d113"/>
  </g>
</svg>
