<svg xmlns="http://www.w3.org/2000/svg" xmlns:xlink="http://www.w3.org/1999/xlink" width="1000" height="1000" viewBox="0 0 1000 1000">
  <defs>
    <clipPath id="clip-icon_tab_donate">
      <rect width="1000" height="1000"/>
    </clipPath>
  </defs>
  <g id="icon_tab_donate" clip-path="url(#clip-icon_tab_donate)">
    <g id="Rectangle_13" data-name="Rectangle 13" transform="translate(75 417)" fill="#e1e1e1" stroke="#141414" stroke-width="100">
      <path d="M0,0H850a0,0,0,0,1,0,0V553a30,30,0,0,1-30,30H30A30,30,0,0,1,0,553V0A0,0,0,0,1,0,0Z" stroke="none"/>
      <path d="M100,50H750a50,50,0,0,1,50,50V513a20,20,0,0,1-20,20H70a20,20,0,0,1-20-20V100A50,50,0,0,1,100,50Z" fill="none"/>
    </g>
    <g id="Rectangle_14" data-name="Rectangle 14" transform="translate(0 220)" fill="#e1e1e1" stroke="#141414" stroke-width="100">
      <path d="M30,0H970a30,30,0,0,1,30,30V297a0,0,0,0,1,0,0H0a0,0,0,0,1,0,0V30A30,30,0,0,1,30,0Z" stroke="none"/>
      <path d="M70,50H930a20,20,0,0,1,20,20V197a50,50,0,0,1-50,50H100a50,50,0,0,1-50-50V70A20,20,0,0,1,70,50Z" fill="none"/>
    </g>
    <rect id="Rectangle_15" data-name="Rectangle 15" width="139" height="780" transform="translate(431 220)" fill="#135bd1"/>
    <path id="Path_6" data-name="Path 6" d="M146.371,0C227.21,0,380.415,220,380.415,220H146.371C65.533,220,0,170.751,0,110S65.533,0,146.371,0Z" transform="translate(119.472)" fill="#78d113"/>
    <path id="Path_7" data-name="Path 7" d="M234.044,0C153.205,0,0,220,0,220H234.044c80.839,0,146.371-49.249,146.371-110S314.882,0,234.044,0Z" transform="translate(500.472)" fill="#78d113"/>
  </g>
</svg>
