<svg id="Layer_1" data-name="Layer 1" xmlns="http://www.w3.org/2000/svg" viewBox="0 0 722.83 319.74"><defs><style>.cls-1{fill:#fff;}.cls-2{fill:#135bd1;}.cls-3{fill:#78d113;}</style></defs><path d="M782.94,306.07c-2.57,4.14-6.42,5-11.08,5q-350.49-.1-701-.07a23.05,23.05,0,0,1-4.48-.19c-3.91-.77-6.31-3.29-6.31-7.23s2.4-6.47,6.31-7.24a23,23,0,0,1,4.48-.19q350.48,0,701-.07c4.66,0,8.51.86,11.09,5Z" transform="translate(-60.11 -142.84)"/><path d="M316.59,462.58c-8.41-2.37-16.18-5.8-21.87-12.81-5.19-6.41-8.15-13.62-8.15-21.94q0-30.65,0-61.29c0-19.13,14.86-35.15,33.94-35.39,32.11-.4,64.22-.08,96.33,0a6.37,6.37,0,0,1,1.24.36v22.75c-1.79.08-3.7.24-5.6.24q-43.68,0-87.35,0c-11,0-15.44,4.36-15.49,15.31,0,2.8,0,5.6,0,9h84.71v23.12H310.17c0,9.67-.66,18.92.22,28,.6,6.26,6,9.19,13.44,9.2q44.18,0,88.34,0h6.28v23.48Z" transform="translate(-60.11 -142.84)"/><path d="M576.23,462.58v-131c1.94,1.34,3.35,2.23,4.68,3.25,19.13,14.63,38.3,29.21,57.32,44,2.89,2.25,4.71,2.19,7.59-.05,19.42-15.08,39-29.95,58.52-44.88.9-.69,1.84-1.34,3.71-2.69V462.58h-23V378.37L642,411.14,599.2,378.58v84Z" transform="translate(-60.11 -142.84)"/><path class="cls-1" d="M599.2,462.58v-84L642,411.14l43.06-32.77v84.21Z" transform="translate(-60.11 -142.84)"/><path d="M189.76,462.58V354.5H135.87V331.33H266.45V354.5H212.73V462.58Z" transform="translate(-60.11 -142.84)"/><path d="M430.43,462.58c6.33-12.57,12.59-25.17,19-37.7q22.84-44.73,45.8-89.42c.58-1.13,1.26-2.2,2.32-4,5.69,11.05,11.07,21.43,16.4,31.84q24.71,48.26,49.36,96.55a20.76,20.76,0,0,1,1,2.75h-26L497.42,382.7c-14,27.28-27.52,53.58-41,79.88Z" transform="translate(-60.11 -142.84)"/><path class="cls-1" d="M456.4,462.58c13.5-26.3,27-52.6,41-79.88l40.86,79.88Z" transform="translate(-60.11 -142.84)"/><path d="M160.75,190.48v83.33H137.94V143.16l65.44,50,65.33-49.95V273.92H246.13V190.26c-7.83,5.9-14.69,11-21.51,16.23-6,4.53-12,8.92-17.71,13.75-2.8,2.37-4.58,1.93-7.21-.13-11.25-8.8-22.67-17.39-34-26.06C164.37,193.06,163,192.13,160.75,190.48Z" transform="translate(-60.11 -142.84)"/><path d="M397.27,142.84H420.4v5.29q0,30.13,0,60.28c0,35-26.75,63.56-62.66,65.54a65,65,0,0,1-68.32-55,67.36,67.36,0,0,1-.81-9.39c-.07-22.08,0-44.15,0-66.6h23.08v5.23c0,20.59-.38,41.2.25,61.77.78,25,22.75,43.2,47.65,40.32,22.2-2.58,37.48-20.55,37.68-44.66.16-18.77,0-37.53,0-56.3Z" transform="translate(-60.11 -142.84)"/><path d="M532.35,166.13V142.88H663V165.8H609.5V273.73H586.23V166.13Z" transform="translate(-60.11 -142.84)"/><path d="M548.09,250.69v23.43H482.91c-25.27,0-43.44-18.1-43.45-43.25V143H462.6v5.8q0,40.34,0,80.68c0,13.72,7.53,21.23,21.27,21.24q29.19,0,58.37,0Z" transform="translate(-60.11 -142.84)"/><path d="M705.72,273.91H683.33v-131h22.39Z" transform="translate(-60.11 -142.84)"/><path class="cls-2" d="M114.42,351.48c0,9.32-8.6,17.86-18,17.94s-17.88-8.35-18.09-17.8,8.81-18.38,18.19-18.18S114.47,342.18,114.42,351.48Z" transform="translate(-60.11 -142.84)"/><path class="cls-3" d="M114.42,255.77c0,9.32-8.6,17.86-18,17.94s-17.88-8.35-18.09-17.8,8.81-18.38,18.19-18.18S114.47,246.47,114.42,255.77Z" transform="translate(-60.11 -142.84)"/></svg>